<svg xmlns="http://www.w3.org/2000/svg" viewBox="0 0 48 48" fill="none" role="img" aria-label="LookFinesse">
  <defs>
    <linearGradient id="lf-mark" x1="8" y1="6" x2="42" y2="42" gradientUnits="userSpaceOnUse">
      <stop offset="0%" stop-color="#FDA4AF"/>
      <stop offset="45%" stop-color="#C084FC"/>
      <stop offset="100%" stop-color="#F5D0A8"/>
    </linearGradient>
    <linearGradient id="lf-bg" x1="0" y1="0" x2="48" y2="48" gradientUnits="userSpaceOnUse">
      <stop offset="0%" stop-color="#141018"/>
      <stop offset="100%" stop-color="#08060A"/>
    </linearGradient>
    <linearGradient id="lf-edge" x1="0" y1="0" x2="48" y2="0" gradientUnits="userSpaceOnUse">
      <stop offset="0%" stop-color="#FDA4AF" stop-opacity="0.55"/>
      <stop offset="100%" stop-color="#C084FC" stop-opacity="0.35"/>
    </linearGradient>
  </defs>
  <rect width="48" height="48" rx="13" fill="url(#lf-bg)"/>
  <rect x="0.75" y="0.75" width="46.5" height="46.5" rx="12.25" stroke="url(#lf-edge)" stroke-width="1"/>
  <!-- Facet-cut ribbon mark: editorial L-flow, not a circle monogram -->
  <path d="M12 34 L12 14 L22 14 L22 24 L30 14 L36 14 L26 26 L36 34 L30 34 L22 28 L22 34 Z" fill="url(#lf-mark)" opacity="0.18"/>
  <path d="M11 33 L11 13 L21 13 L21 23 L29 13 L35 13 L25 25 L35 33 L29 33 L21 27 L21 33 Z" fill="url(#lf-mark)"/>
  <path d="M14 18 L32 30" stroke="#FFF5F0" stroke-width="1.1" stroke-linecap="round" opacity="0.35"/>
  <circle cx="33" cy="15" r="1.6" fill="#FDA4AF"/>
</svg>
